<?xml version="1.0" encoding="utf-8"?>
<!-- Generator: Adobe Illustrator 23.0.5, SVG Export Plug-In . SVG Version: 6.00 Build 0)  -->
<svg version="1.1" id="Слой_1" xmlns="http://www.w3.org/2000/svg" xmlns:xlink="http://www.w3.org/1999/xlink" x="0px" y="0px"
	 viewBox="0 0 327 98.02" style="enable-background:new 0 0 327 98.02;" xml:space="preserve">
<style type="text/css">
	.st0{fill:#FFFFFF;}
</style>
<g id="XMLID_914_">
	<g id="XMLID_1258_">
		<path id="XMLID_1276_" class="st0" d="M160.21,0.32v42.17h-9.91V0.32H160.21z"/>
		<path id="XMLID_1273_" class="st0" d="M205.85,0.32v16.47c1.69-1.75,4.43-3.15,8.33-3.15c9.38,0,13.52,7.63,13.52,14.86
			c0,7.23-4.14,14.86-13.52,14.86c-5.01,0-8.1-2.33-9.5-4.66v3.79h-8.74V0.32H205.85z M211.5,21.8c-2.74,0-4.78,1.69-5.65,3.5v6.41
			c0.87,1.81,2.91,3.5,5.65,3.5c4.2,0,6-3.44,6-6.7C217.51,25.24,215.7,21.8,211.5,21.8z"/>
		<path id="XMLID_1271_" class="st0" d="M259.04,14.52v27.97h-8.74v-3.21c-2.33,2.51-5.19,4.08-8.92,4.08
			c-7.69,0-11.19-5.19-11.19-11.48V14.52h9.91v16.03c0,2.97,1.81,4.37,4.25,4.37c2.21,0,3.9-1.34,4.78-2.45V14.52H259.04z"/>
		<path id="XMLID_1268_" class="st0" d="M275.28,13.64c5.01,0,8.1,2.33,9.5,4.66v-3.79h8.74v26.81c0,11.19-8.1,14.86-16.55,14.86
			c-4.49,0-8.68-0.99-12.06-2.62l2.32-7.25c2.58,1.11,5.52,1.71,8.4,1.71c4.49,0,7.98-1.34,7.98-6.12v-1.69
			c-1.69,1.75-4.43,3.15-8.33,3.15c-9.38,0-13.52-7.63-13.52-14.86C261.76,21.28,265.89,13.64,275.28,13.64z M277.96,21.8
			c-4.2,0-6,3.44-6,6.7c0,3.26,1.81,6.7,6,6.7c2.74,0,4.78-1.69,5.65-3.5V25.3C282.74,23.49,280.7,21.8,277.96,21.8z"/>
		<path id="XMLID_1265_" class="st0" d="M147.04,36.34l1.11,5.94c-1.34,0.52-3.15,0.87-5.01,0.87c-3.09,0-5.36-1.11-6.64-3.09
			c-2.68,2.1-5.77,3.38-9.73,3.38c-5.36,0-9.73-3.21-9.73-8.62c0-7.05,6.7-9.21,12.12-9.21c2.1,0,4.2,0.23,6.06,0.64v-0.99
			c0-1.98-1.86-3.5-5.83-3.5c-2.95,0-5.72,0.68-8.11,1.52l-1.68-7.7c2.33-0.76,6.76-1.86,10.9-1.86c8.92,0,14.63,3.09,14.63,13.05
			v7.81C145.12,35.93,146.05,36.34,147.04,36.34z M130.61,36.75c1.63,0,3.09-0.35,4.6-1.46V31.5c-0.87-0.29-2.21-0.53-3.56-0.53
			c-2.33,0-4.43,0.82-4.43,3.03C127.23,35.47,128.51,36.75,130.61,36.75z"/>
		<path id="XMLID_1262_" class="st0" d="M192.74,36.34l1.11,5.94c-1.34,0.52-3.15,0.87-5.01,0.87c-3.09,0-5.36-1.11-6.64-3.09
			c-2.68,2.1-5.77,3.38-9.73,3.38c-5.36,0-9.73-3.21-9.73-8.62c0-7.05,6.7-9.21,12.12-9.21c2.1,0,4.2,0.23,6.06,0.64v-0.99
			c0-1.98-1.86-3.5-5.83-3.5c-2.95,0-5.72,0.68-8.11,1.52l-1.68-7.7c2.33-0.76,6.76-1.86,10.9-1.86c8.92,0,14.63,3.09,14.63,13.05
			v7.81C190.82,35.93,191.75,36.34,192.74,36.34z M176.3,36.75c1.63,0,3.09-0.35,4.6-1.46V31.5c-0.87-0.29-2.21-0.53-3.56-0.53
			c-2.33,0-4.43,0.82-4.43,3.03C172.93,35.47,174.21,36.75,176.3,36.75z"/>
		<path id="XMLID_1259_" class="st0" d="M326.01,36.34l1.11,5.94c-1.34,0.52-3.15,0.87-5.01,0.87c-3.09,0-5.36-1.11-6.64-3.09
			c-2.68,2.1-5.77,3.38-9.73,3.38c-5.36,0-9.73-3.21-9.73-8.62c0-7.05,6.7-9.21,12.12-9.21c2.1,0,4.2,0.23,6.06,0.64v-0.99
			c0-1.98-1.86-3.5-5.83-3.5c-2.95,0-5.72,0.68-8.11,1.52l-1.68-7.7c2.33-0.76,6.76-1.86,10.9-1.86c8.92,0,14.63,3.09,14.63,13.05
			v7.81C324.09,35.93,325.02,36.34,326.01,36.34z M309.58,36.75c1.63,0,3.09-0.35,4.6-1.46V31.5c-0.87-0.29-2.21-0.53-3.56-0.53
			c-2.33,0-4.43,0.82-4.43,3.03C306.2,35.47,307.48,36.75,309.58,36.75z"/>
	</g>
	<g id="XMLID_1213_">
		<path id="XMLID_1256_" class="st0" d="M119.77,62.59c0.95,0,1.9,0.23,2.56,0.61v1.85c-0.65-0.49-1.52-0.73-2.4-0.72
			c-0.74,0.01-0.97,0.21-0.97,0.49c0,0.99,3.97,0.69,3.97,3.39c0,1.81-1.39,2.33-3.05,2.33c-1.1,0-2.13-0.25-2.93-0.7v-1.91
			c0.91,0.62,1.91,0.86,2.78,0.86c0.8,0,1.13-0.13,1.13-0.51c0-1.1-3.97-0.73-3.97-3.46C116.89,63.31,118.2,62.59,119.77,62.59z"/>
		<path id="XMLID_1253_" class="st0" d="M127.74,62.76c1.89,0,3.33,0.61,3.33,2.62c0,2.01-1.44,2.61-3.33,2.62h-1v2.4h-2.02v-7.64
			H127.74z M127.84,64.5h-1.1v1.75h1.1c0.61,0,1.16-0.18,1.16-0.87C129,64.69,128.45,64.5,127.84,64.5z"/>
		<path id="XMLID_1251_" class="st0" d="M138.29,62.76v1.75h-3.48v1.17h3.15v1.74h-3.15v1.24h3.55v1.75h-5.56v-7.64H138.29z"/>
		<path id="XMLID_1249_" class="st0" d="M143.97,62.59c0.78,0,1.55,0.16,2.21,0.48v1.91c-0.47-0.39-1.17-0.62-1.87-0.62
			c-1.21,0-2.41,0.67-2.41,2.32c0,1.48,1.2,2.09,2.39,2.09c0.79,0,1.51-0.24,1.94-0.67v1.96c-0.67,0.32-1.42,0.48-2.23,0.48
			c-2.09,0-4.18-1.15-4.18-3.87C139.84,63.8,141.91,62.59,143.97,62.59z"/>
		<path id="XMLID_1247_" class="st0" d="M149.94,62.76v7.64h-2.02v-7.64H149.94z"/>
		<path id="XMLID_1244_" class="st0" d="M151.23,70.39l3-7.64h2.18l3,7.64h-2.07l-0.44-1.2h-3.16l-0.44,1.2H151.23z M154.34,67.55
			h1.96l-0.79-2.2c-0.07-0.19-0.13-0.37-0.2-0.78c-0.07,0.4-0.13,0.59-0.2,0.78L154.34,67.55z"/>
		<path id="XMLID_1241_" class="st0" d="M162.94,62.76v5.84h3.49v1.8h-5.51v-7.64H162.94z"/>
		<path id="XMLID_1239_" class="st0" d="M122.37,76.64v1.75h-3.48v1.17h3.15v1.74h-3.15v1.24h3.55v1.75h-5.56v-7.64H122.37z"/>
		<path id="XMLID_1237_" class="st0" d="M127.93,76.48c0.77,0,1.55,0.16,2.21,0.48v1.91c-0.47-0.39-1.17-0.62-1.86-0.62
			c-1.21,0-2.41,0.66-2.41,2.32c0,1.48,1.2,2.09,2.39,2.09c0.79,0,1.51-0.24,1.94-0.67v1.96c-0.66,0.32-1.42,0.48-2.23,0.48
			c-2.09,0-4.18-1.14-4.18-3.87C123.79,77.69,125.87,76.48,127.93,76.48z"/>
		<path id="XMLID_1234_" class="st0" d="M135.58,76.48c2.73,0,4.09,1.85,4.09,3.98c0,2.13-1.36,3.98-4.09,3.98
			c-2.73,0-4.09-1.85-4.09-3.98C131.49,78.33,132.85,76.48,135.58,76.48z M135.58,78.33c-1.32,0-2.02,0.91-2.02,2.13
			c0,1.22,0.7,2.13,2.02,2.13c1.32,0,2.02-0.91,2.02-2.13C137.6,79.24,136.9,78.33,135.58,78.33z"/>
		<path id="XMLID_1232_" class="st0" d="M141.29,84.28v-7.64h1.91l2.99,4.39c-0.03-0.36-0.04-0.84-0.04-1.27v-3.12h2.02v7.64h-1.91
			l-2.99-4.37c0.03,0.36,0.04,0.84,0.04,1.25v3.12H141.29z"/>
		<path id="XMLID_1229_" class="st0" d="M154.1,76.48c2.73,0,4.09,1.85,4.09,3.98c0,2.13-1.36,3.98-4.09,3.98
			c-2.73,0-4.09-1.85-4.09-3.98C150.01,78.33,151.37,76.48,154.1,76.48z M154.1,78.33c-1.32,0-2.02,0.91-2.02,2.13
			c0,1.22,0.7,2.13,2.02,2.13c1.32,0,2.02-0.91,2.02-2.13C156.12,79.24,155.42,78.33,154.1,78.33z"/>
		<path id="XMLID_1227_" class="st0" d="M168.49,76.64v7.64h-2.02v-4.06l-1.64,2.51h-1.16l-1.64-2.52v4.07h-2.02v-7.64h1.91
			l2.32,3.58l2.32-3.58H168.49z"/>
		<path id="XMLID_1225_" class="st0" d="M172.73,76.64v7.64h-2.02v-7.64H172.73z"/>
		<path id="XMLID_1223_" class="st0" d="M178.72,76.48c0.77,0,1.55,0.16,2.21,0.48v1.91c-0.47-0.39-1.17-0.62-1.87-0.62
			c-1.21,0-2.41,0.66-2.41,2.32c0,1.48,1.2,2.09,2.39,2.09c0.79,0,1.51-0.24,1.94-0.67v1.96c-0.67,0.32-1.42,0.48-2.23,0.48
			c-2.09,0-4.18-1.14-4.18-3.87C174.58,77.69,176.65,76.48,178.72,76.48z"/>
		<path id="XMLID_1221_" class="st0" d="M116.77,98.17v-1.36l3.32-4.47h-3.12v-1.8h5.85v1.36l-3.33,4.47h3.43v1.8H116.77z"/>
		<path id="XMLID_1218_" class="st0" d="M127.98,90.37c2.73,0,4.09,1.85,4.09,3.98c0,2.13-1.36,3.98-4.09,3.98
			c-2.73,0-4.09-1.85-4.09-3.98C123.88,92.22,125.25,90.37,127.98,90.37z M127.98,92.22c-1.32,0-2.02,0.91-2.02,2.13
			c0,1.22,0.7,2.13,2.02,2.13c1.32,0,2.02-0.91,2.02-2.13C129.99,93.13,129.3,92.22,127.98,92.22z"/>
		<path id="XMLID_1216_" class="st0" d="M133.69,98.17v-7.64h1.91l2.99,4.39c-0.03-0.36-0.04-0.84-0.04-1.27v-3.12h2.02v7.64h-1.91
			l-2.99-4.38c0.03,0.36,0.04,0.84,0.04,1.25v3.12H133.69z"/>
		<path id="XMLID_1214_" class="st0" d="M148.28,90.53v1.75h-3.48v1.17h3.15v1.73h-3.15v1.24h3.55v1.75h-5.56v-7.64H148.28z"/>
	</g>
	<g id="XMLID_604_">
		<g id="XMLID_660_">
			<path class="st0" d="M61.45,13.48C55.76,8.51,50.11,4.3,44.69,0.93C39.27,4.3,33.62,8.51,27.93,13.48
				c5.41,3.04,11.06,6.96,16.76,11.62C50.39,20.44,56.04,16.52,61.45,13.48z"/>
		</g>
		<g id="XMLID_659_">
			<path class="st0" d="M73.3,54.89c5.43-4.32,10.81-7.96,15.96-10.79c-3.28-4.52-6.85-9.02-10.71-13.44
				c-0.31-0.36-0.63-0.71-0.94-1.06c-2.25,1.2-4.56,2.56-6.93,4.09c-3.16,2.05-6.36,4.35-9.55,6.87c1.53,1.63,3.05,3.31,4.55,5.03
				C68.34,48.64,70.88,51.75,73.3,54.89z"/>
		</g>
		<g id="XMLID_655_">
			<path class="st0" d="M46.09,26.26c4.62,3.88,9.26,8.23,13.82,13.01c5.62-4.46,11.17-8.18,16.48-11.04
				c-4.45-4.94-8.99-9.45-13.51-13.49c-1.87,1.03-3.78,2.18-5.72,3.44C53.48,20.54,49.78,23.25,46.09,26.26z"/>
		</g>
		<g id="XMLID_652_">
			<path class="st0" d="M28.25,40.56c-3.19-2.52-6.39-4.83-9.55-6.87c-2.37-1.53-4.68-2.89-6.93-4.09
				c-0.31,0.35-0.63,0.71-0.94,1.06C6.97,35.08,3.4,39.59,0.12,44.1c5.15,2.83,10.52,6.46,15.96,10.79
				c2.42-3.14,4.96-6.25,7.62-9.29C25.2,43.87,26.72,42.2,28.25,40.56z"/>
		</g>
		<g id="XMLID_648_">
			<path class="st0" d="M54.04,66.08c-0.14-0.18-0.29-0.35-0.43-0.52c-0.19-0.23-0.38-0.45-0.57-0.68
				c-0.22-0.26-0.44-0.52-0.66-0.77c-0.14-0.17-0.29-0.34-0.43-0.51c-0.38-0.44-0.75-0.88-1.13-1.31c-1.28-1.47-2.58-2.91-3.88-4.32
				c-0.02-0.02-0.04-0.04-0.06-0.06c-0.31-0.33-0.61-0.66-0.92-0.99c-0.42-0.44-0.84-0.88-1.26-1.32c-0.75,0.78-1.49,1.57-2.24,2.37
				c-1.31,1.41-2.6,2.85-3.88,4.32c-0.38,0.44-0.76,0.87-1.13,1.31c-0.14,0.17-0.29,0.34-0.43,0.5c-0.22,0.26-0.44,0.52-0.66,0.78
				c-0.19,0.22-0.38,0.45-0.57,0.67c-0.15,0.18-0.29,0.35-0.44,0.53c-1.02,1.23-2.02,2.47-3,3.71c2.11,2.19,4.2,4.47,6.26,6.84
				c0.38,0.44,0.76,0.87,1.13,1.31c0.15,0.18,0.3,0.35,0.45,0.53c0.21,0.25,0.42,0.49,0.63,0.74c0.21,0.24,0.41,0.49,0.61,0.73
				c0.11,0.13,0.22,0.27,0.33,0.4c0.99,1.2,1.97,2.4,2.92,3.61c0.96-1.21,1.93-2.41,2.93-3.61c0.11-0.13,0.22-0.26,0.33-0.4
				c0.2-0.25,0.41-0.49,0.62-0.74c0.21-0.25,0.42-0.49,0.62-0.74c0.15-0.18,0.3-0.36,0.45-0.53c0.38-0.44,0.75-0.87,1.13-1.31
				c2.06-2.36,4.15-4.64,6.26-6.84C56.06,68.55,55.06,67.31,54.04,66.08z"/>
		</g>
		<g id="XMLID_644_">
			<path class="st0" d="M13,28.23c5.3,2.86,10.86,6.58,16.48,11.04c4.56-4.77,9.2-9.13,13.82-13.01c-3.7-3.01-7.4-5.71-11.06-8.08
				c-1.95-1.26-3.86-2.41-5.72-3.44C21.99,18.78,17.45,23.29,13,28.23z"/>
		</g>
	</g>
</g>
</svg>
