<?xml version="1.0" encoding="UTF-8" standalone="no"?>
<!-- Created with Inkscape (http://www.inkscape.org/) -->

<svg
        width="23.584999mm"
        height="23.584999mm"
        viewBox="0 0 23.585306 23.585306"
        version="1.1"
        id="svg1"
        xml:space="preserve"
        inkscape:version="1.3.2 (091e20e, 2023-11-25, custom)"
        sodipodi:docname="icon_logo.svg"
        xmlns:inkscape="http://www.inkscape.org/namespaces/inkscape"
        xmlns:sodipodi="http://sodipodi.sourceforge.net/DTD/sodipodi-0.dtd"
        xmlns="http://www.w3.org/2000/svg"
        xmlns:svg="http://www.w3.org/2000/svg"><sodipodi:namedview
     id="namedview1"
     pagecolor="#ffffff"
     bordercolor="#000000"
     borderopacity="0.25"
     inkscape:showpageshadow="2"
     inkscape:pageopacity="0.0"
     inkscape:pagecheckerboard="true"
     inkscape:deskcolor="#8f8f8f"
     inkscape:document-units="mm"
     shape-rendering="auto"
     inkscape:zoom="8.6778906"
     inkscape:cx="38.027675"
     inkscape:cy="43.962297"
     inkscape:window-width="2400"
     inkscape:window-height="1271"
     inkscape:window-x="2391"
     inkscape:window-y="41"
     inkscape:window-maximized="1"
     inkscape:current-layer="layer1"
     showgrid="true"><inkscape:grid
       id="grid1"
       units="mm"
       originx="0"
       originy="0"
       spacingx="1.000013"
       spacingy="1.000013"
       empcolor="#0099e5"
       empopacity="0.30196078"
       color="#0099e5"
       opacity="0.14901961"
       empspacing="5"
       dotted="false"
       gridanglex="30"
       gridanglez="30"
       visible="true" /></sodipodi:namedview>
    <defs
            id="defs1"/>
    <g
            inkscape:label="Слой 1"
            inkscape:groupmode="layer"
            id="layer1"
            transform="translate(-270.72931,-157.85839)"><g
       id="XMLID_914_"
       transform="matrix(0.24584119,0,0,0.26396391,250.58883,133.4493)">
	
	
	
<g
        id="XMLID_604_"
        transform="translate(-99.558304,184.15624)">
		
		
		
		
		
		<g
                id="g1"
                transform="translate(184.76166,-89.449668)"
                style="stroke-width:1.00159;stroke-dasharray:none;image-rendering:auto"><g
     id="XMLID_660_"
     style="stroke-width:1.00159;stroke-dasharray:none">
			<path
                    class="st0"
                    d="M 61.45,13.48 C 55.76,8.51 50.11,4.3 44.69,0.93 39.27,4.3 33.62,8.51 27.93,13.48 c 5.41,3.04 11.06,6.96 16.76,11.62 5.7,-4.66 11.35,-8.58 16.76,-11.62 z"
                    id="path1"
                    style="fill:#ffffff;stroke-width:1.00159;stroke-dasharray:none"/>
		</g>
            <g
                    id="XMLID_659_"
                    style="stroke-width:1.00159;stroke-dasharray:none">
			<path
                    class="st0"
                    d="M 73.3,54.89 C 78.73,50.57 84.11,46.93 89.26,44.1 85.98,39.58 82.41,35.08 78.55,30.66 78.24,30.3 77.92,29.95 77.61,29.6 c -2.25,1.2 -4.56,2.56 -6.93,4.09 -3.16,2.05 -6.36,4.35 -9.55,6.87 1.53,1.63 3.05,3.31 4.55,5.03 2.66,3.05 5.2,6.16 7.62,9.3 z"
                    id="path2"
                    style="fill:#ffffff;stroke-width:1.00159;stroke-dasharray:none"/>
		</g>
            <g
                    id="XMLID_655_"
                    style="stroke-width:1.00159;stroke-dasharray:none">
			<path
                    class="st0"
                    d="m 46.09,26.26 c 4.62,3.88 9.26,8.23 13.82,13.01 5.62,-4.46 11.17,-8.18 16.48,-11.04 -4.45,-4.94 -8.99,-9.45 -13.51,-13.49 -1.87,1.03 -3.78,2.18 -5.72,3.44 -3.68,2.36 -7.38,5.07 -11.07,8.08 z"
                    id="path3"
                    style="fill:#ffffff;stroke-width:1.00159;stroke-dasharray:none"/>
		</g>
            <g
                    id="XMLID_652_"
                    style="stroke-width:1.00159;stroke-dasharray:none">
			<path
                    class="st0"
                    d="M 28.25,40.56 C 25.06,38.04 21.86,35.73 18.7,33.69 16.33,32.16 14.02,30.8 11.77,29.6 11.46,29.95 11.14,30.31 10.83,30.66 6.97,35.08 3.4,39.59 0.12,44.1 c 5.15,2.83 10.52,6.46 15.96,10.79 2.42,-3.14 4.96,-6.25 7.62,-9.29 1.5,-1.73 3.02,-3.4 4.55,-5.04 z"
                    id="path4"
                    style="fill:#ffffff;stroke-width:1.00159;stroke-dasharray:none"/>
		</g>
            <g
                    id="XMLID_648_"
                    style="stroke-width:1.00159;stroke-dasharray:none">
			<path
                    class="st0"
                    d="M 54.04,66.08 C 53.9,65.9 53.75,65.73 53.61,65.56 53.42,65.33 53.23,65.11 53.04,64.88 52.82,64.62 52.6,64.36 52.38,64.11 52.24,63.94 52.09,63.77 51.95,63.6 51.57,63.16 51.2,62.72 50.82,62.29 49.54,60.82 48.24,59.38 46.94,57.97 46.92,57.95 46.9,57.93 46.88,57.91 46.57,57.58 46.27,57.25 45.96,56.92 45.54,56.48 45.12,56.04 44.7,55.6 c -0.75,0.78 -1.49,1.57 -2.24,2.37 -1.31,1.41 -2.6,2.85 -3.88,4.32 -0.38,0.44 -0.76,0.87 -1.13,1.31 -0.14,0.17 -0.29,0.34 -0.43,0.5 -0.22,0.26 -0.44,0.52 -0.66,0.78 -0.19,0.22 -0.38,0.45 -0.57,0.67 -0.15,0.18 -0.29,0.35 -0.44,0.53 -1.02,1.23 -2.02,2.47 -3,3.71 2.11,2.19 4.2,4.47 6.26,6.84 0.38,0.44 0.76,0.87 1.13,1.31 0.15,0.18 0.3,0.35 0.45,0.53 0.21,0.25 0.42,0.49 0.63,0.74 0.21,0.24 0.41,0.49 0.61,0.73 0.11,0.13 0.22,0.27 0.33,0.4 0.99,1.2 1.97,2.4 2.92,3.61 0.96,-1.21 1.93,-2.41 2.93,-3.61 0.11,-0.13 0.22,-0.26 0.33,-0.4 0.2,-0.25 0.41,-0.49 0.62,-0.74 0.21,-0.25 0.42,-0.49 0.62,-0.74 0.15,-0.18 0.3,-0.36 0.45,-0.53 0.38,-0.44 0.75,-0.87 1.13,-1.31 2.06,-2.36 4.15,-4.64 6.26,-6.84 -0.96,-1.23 -1.96,-2.47 -2.98,-3.7 z"
                    id="path5"
                    style="fill:#ffffff;stroke-width:1.00159;stroke-dasharray:none"/>
		</g>
            <g
                    id="XMLID_644_"
                    style="stroke-width:1.00159;stroke-dasharray:none">
			<path
                    class="st0"
                    d="m 13,28.23 c 5.3,2.86 10.86,6.58 16.48,11.04 C 34.04,34.5 38.68,30.14 43.3,26.26 39.6,23.25 35.9,20.55 32.24,18.18 30.29,16.92 28.38,15.77 26.52,14.74 21.99,18.78 17.45,23.29 13,28.23 Z"
                    id="path6"
                    style="fill:#ffffff;stroke-width:1.00159;stroke-dasharray:none"/>
		</g></g>
	</g></g></g>
    <style
            type="text/css"
            id="style1">
	.st0{fill:#FFFFFF;}
</style></svg>
